<?xml version="1.0" encoding="UTF-8"?>
<svg id="Layer_1" xmlns="http://www.w3.org/2000/svg" width="208.59" height="40" xmlns:xlink="http://www.w3.org/1999/xlink" viewBox="0 0 208.59 40">
  <defs>
    <style>
      .cls-1 {
        stroke-linecap: round;
      }

      .cls-1, .cls-2 {
        stroke: #686868;
        stroke-miterlimit: 2.61;
        stroke-width: .66px;
      }

      .cls-1, .cls-2, .cls-3, .cls-4 {
        fill: none;
      }

      .cls-5, .cls-6 {
        fill-rule: evenodd;
      }

      .cls-5, .cls-7 {
        fill: #686868;
      }

      .cls-6, .cls-8 {
        fill: #b9d719;
      }

      .cls-9 {
        fill: #d0de5e;
      }

      .cls-10 {
        fill: #231f20;
      }

      .cls-11 {
        fill: #22587a;
      }

      .cls-4 {
        stroke: #231f20;
        stroke-miterlimit: 10;
        stroke-width: .75px;
      }

      .cls-12 {
        clip-path: url(#clippath);
      }
    </style>
    <clipPath id="clippath">
      <rect class="cls-3" x="179.77" y="10.32" width="20.1" height="11.22"/>
    </clipPath>
  </defs>
  <g>
    <path class="cls-6" d="M18.8,25.1l4,13.5c.1.5.5.4.7.1l7.2-10.4c.3-.4.2-.9-.1-1.2h-.1l-11.7-9v7ZM31.4,19.7l3.7-12.7c.2-.7-.1-1-.9-.4l-15.1,10.5,6.3,4.9,5.8-2c.1-.1.2-.2.2-.3"/>
    <path class="cls-5" d="M17.9,25.1l-4,13.5c-.1.5-.5.4-.7.1l-7.2-10.5c-.3-.4-.2-.9.1-1.2h.1l11.7-9v7.1ZM5.2,19.7L1.6,7c-.2-.7.1-1,.9-.5l15.1,10.6-6.4,4.9-5.8-2c-.1-.1-.2-.2-.2-.3"/>
  </g>
  <g>
    <path class="cls-2" d="M4.3,2.1c.7-1.3,2.6-1.6,4.4-.7,1.8.9,2.6,2.7,1.9,4s-2.7,1.6-4.5.7-2.5-2.8-1.8-4Z"/>
    <path class="cls-1" d="M8.9,1.5s1.5,3.7-2.6,4.6M8.8,4.5s6.8,2.3,9.4,12.4"/>
    <path class="cls-2" d="M32.3,2.1c-.7-1.3-2.6-1.6-4.4-.7-1.8.9-2.5,2.7-1.9,4s2.6,1.6,4.4.7c1.7-.9,2.5-2.8,1.9-4Z"/>
    <path class="cls-1" d="M27.7,1.5s-1.5,3.7,2.6,4.6M27.7,4.5s-6.8,2.3-9.4,12.4"/>
  </g>
  <path class="cls-7" d="M37.7,30.6v-1.8h1.9v-12h-1.9v-1.8h5.7v1.8h-1.9v12h1.9v1.8s-5.7,0-5.7,0ZM46.1,30.6v-2.5h1.9v2.5h-1.9ZM54.3,30.6v-13.8h-4.6v-1.8h11.1v1.8h-4.6v13.8s-1.9,0-1.9,0ZM62.5,30.6v-2.5h1.9v2.5h-1.9Z"/>
  <path class="cls-8" d="M71.4,30.6l-5.3-15.5h2l4.5,13.7h.5l4.5-13.7h2l-5.3,15.5s-2.9,0-2.9,0ZM81.7,30.6v-15.5h10.3v1.8h-8.3v4.7h7.4v1.7h-7.4v5.5h8.3v1.8s-10.3,0-10.3,0ZM94.9,30.6v-15.5h8.4l3.2,3.3v9l-3.2,3.3h-8.4v-.1ZM96.8,28.9h5.6l2.2-2.2v-7.7l-2.2-2.2h-5.6v12.1ZM107.9,30.6l5.2-15.5h3l5.2,15.5h-2l-1.3-4h-6.8l-1.3,4h-2,0ZM111.8,24.9h5.7l-2.6-8h-.5l-2.6,8ZM123.5,30.6v-15.5h2.6l6.9,12.5v-12.5h1.9v15.5h-2.3l-6.8-12.3h-.5v12.3h-1.8,0ZM141.7,30.6v-13.8h-4.7v-1.8h11.1v1.8h-4.6v13.8s-1.8,0-1.8,0Z"/>
  <path class="cls-7" d="M79.6,38.2v-5h2.9l1.1,1.1v2.9l-1.1,1.1h-2.9v-.1ZM80.5,37.5h1.6l.6-.6v-2.3l-.6-.6h-1.6s0,3.5,0,3.5ZM85.2,38.2l-.8-.8v-2l.8-.8h1.6l.8.8v1.3h-2.3v.5l.3.3h2v.7h-2.4ZM85.2,36.1h1.5v-.5l-.3-.3h-.9l-.3.3s0,.5,0,.5ZM89.2,38.2l-.8-.8v-2l.8-.8h1.7l.7.7v.7h-.8v-.4l-.3-.3h-.9l-.3.3v1.6l.3.3h2v.7h-2.4,0ZM93.1,38.2l-.8-.8v-2l.8-.8h1.8l.8.8v2l-.8.8h-1.8ZM93.4,37.6h1l.3-.3v-1.7l-.3-.3h-1l-.3.3v1.7l.3.3ZM97.2,38.2l-.8-.8v-2l.8-.8h1.3l.5.5v-2h.8v5h-.8v-.5l-.5.5h-1.3v.1ZM98.3,37.6l.7-.7v-.9l-.7-.7h-.7l-.3.3v1.7l.3.3s.7,0,.7,0ZM101.5,38.2l-.8-.8v-2l.8-.8h1.6l.8.8v1.3h-2.3v.5l.3.3h2v.7h-2.4ZM101.6,36.1h1.5v-.5l-.3-.3h-.9l-.3.3s0,.5,0,.5ZM107.1,39.5l.6-1.5h-.3l-1.4-3.3h.9l.9,2.5h.2l.9-2.5h.9l-2,4.8h-.7ZM111,38.2l-.8-.8v-2l.8-.8h1.8l.8.8v2l-.8.8h-1.8ZM111.4,37.6h1l.3-.3v-1.7l-.3-.3h-1l-.3.3v1.7l.3.3ZM115.2,38.2l-.8-.8v-2.8h.8v2.6l.3.3h.7l.7-.7v-2.2h.8v3.5h-.7v-.5l-.5.5h-1.3v.1ZM118.8,38.2v-3.5h.8v.6l.6-.6h.8v.8h-.8l-.6.6v2.1s-.8,0-.8,0ZM123.9,38.2l-.8-.8v-2l.8-.8h1.3l.5.5v-2h.8v5h-.8v-.5l-.5.5h-1.3v.1ZM125,37.6l.7-.7v-.9l-.7-.7h-.7l-.3.3v1.7l.3.3s.7,0,.7,0ZM127.6,38.2v-3.5h.8v.6l.6-.6h.8v.8h-.8l-.6.6v2.1s-.8,0-.8,0ZM131,38.2l-.8-.8v-2l.8-.8h1.6l.8.8v1.3h-2.3v.5l.3.3h2v.7h-2.4ZM131.1,36.1h1.5v-.5l-.3-.3h-.9l-.3.3v.5ZM134.6,38.2l-.8-.8v-.8l.8-.8h1.7v-.3l-.3-.3h-1.7v-.7h2.1l.8.8v2.8h-.8v-.5l-.5.5h-1.3v.1ZM135,37.6h.6l.7-.7v-.3h-1.3l-.3.3v.4l.3.3ZM138.1,38.2v-3.5h.8v.6l.6-.6h1.3l.6.6.6-.6h1.3l.8.8v2.8h-.8v-2.6l-.3-.3h-.7l-.7.7v2.2h-.8v-2.6l-.3-.3h-.7l-.8.8v2.1h-.9v-.1ZM145.2,38.2v-.7h1.9l.3-.3v-.2l-.3-.3h-1.3l-.8-.7v-.7l.7-.7h2.1v.7h-1.7l-.3.3v.2l.3.3h1.3l.7.7v.8l-.7.7h-2.2v-.1Z"/>
  <g>
    <path class="cls-9" d="M179.37,38.71c2.07-1.84,5.65-4.91,9.13-7.9,1.26-1.08,2.5-2.15,3.68-3.16l.03-.02c2.06-1.95,3.3-3.53,3.85-4.3.31-.43.53-.89.66-1.38.41-1.48.31-3.08-.28-4.52-.61-1.49-1.67-2.7-3.08-3.49h0c-1.5-.83-3.22-1.08-4.84-.73h-.03c-3.68.94-5.23,3.86-5.45,6.28-.04.47-.03.89,0,1.24h-2.74s.24,1.63.24,1.63h3.49s1.13-.01,1.13-.01l-.37-1.07s-.23-.7-.14-1.64c.08-.9.63-3.93,4.22-4.85,1.21-.26,2.56-.06,3.69.56,2.18,1.22,3.24,3.76,2.58,6.16-.08.3-.22.6-.42.87-.42.58-1.6,2.13-3.63,4.05-1.17,1-2.41,2.07-3.66,3.15-3.89,3.34-7.92,6.8-9.83,8.52l-.69.6h2.45"/>
    <polygon class="cls-9" points="172.99 3.95 172.99 7.29 168.96 7.29 172.99 3.95"/>
    <g>
      <polygon class="cls-11" points="178.16 38.71 182.26 35.14 199.68 35.14 199.68 38.71 178.16 38.71"/>
      <polygon class="cls-11" points="178.16 38.71 188.58 29.65 196.81 27 183.7 38.71 178.16 38.71"/>
      <path class="cls-11" d="M195.98,21.49c-.44,2.66-7.4,8.16-7.4,8.16,0,0,1.33.32,3.43-.05,6.94-1.58,7.59-8.11,7.59-8.11,0,0-2.37,0-3.62,0Z"/>
      <g class="cls-12">
        <path class="cls-11" d="M190,10.32c-5.36,0-9.7,4.34-9.7,9.7s4.34,9.7,9.7,9.7,9.7-4.34,9.7-9.7-4.34-9.7-9.7-9.7ZM190,26.18c-3.4,0-6.15-2.75-6.15-6.15s2.75-6.15,6.15-6.15,6.15,2.75,6.15,6.15-2.75,6.15-6.15,6.15Z"/>
      </g>
    </g>
    <polygon class="cls-11" points="175.43 1.98 171.02 5.58 171.02 36.39 175.43 36.39 175.43 1.98"/>
    <g>
      <path class="cls-10" d="M188.45,8.07s-.03-.04-.04-.06l-.27-2.05s0-.04-.01-.05l-1.98-2.85s-.02-.03-.02-.04c0-.04.02-.07.08-.07l.76-.1c.05,0,.09.01.12.05l1.35,2s.03.02.05,0l.8-2.28s.05-.08.1-.08l.77-.1s.06,0,.08.02c.02.02.02.04,0,.08l-1.18,3.27s-.01.04,0,.05l.27,2.05s0,.05-.02.07c-.02.02-.04.03-.06.04l-.71.09s-.05,0-.07-.02Z"/>
      <path class="cls-10" d="M195.83,4.13s-.05.02-.07.01l-2.57-.59s-.04,0-.05.03l-.33,1.41s0,.04.03.05l1.73.4s.04.02.06.04c.01.02.02.05.01.07l-.13.57s-.02.04-.04.06c-.02.01-.05.02-.07.01l-1.73-.4s-.04,0-.05.03l-.34,1.45s0,.04.03.05l2.57.59s.04.02.06.04c.01.02.02.05.01.07l-.13.57s-.02.04-.04.06c-.02.01-.05.02-.07.01l-3.39-.78s-.04-.02-.06-.04c-.01-.02-.02-.04-.01-.07l1.18-5.09s.02-.04.04-.06c.02-.01.04-.02.07-.01l3.39.78s.04.02.06.04c.01.02.02.05.01.07l-.13.57s-.02.04-.04.06Z"/>
      <path class="cls-10" d="M197.95,10.65l.26-.83s0-.04-.01-.05l-1.68-1.16s-.03,0-.05,0l-.68.54s-.08.04-.13,0l-.64-.44s-.04-.04-.04-.06.01-.05.04-.07l4.35-3.35s.08-.04.13,0l.8.55s.06.07.04.12l-1.58,5.26s0,.02-.02.04c-.03.04-.06.04-.11,0l-.64-.44s-.06-.07-.04-.12ZM197.11,8.17l1.29.89s.04.01.05-.02l.82-2.58s0-.03,0-.04c0,0-.02,0-.04.01l-2.12,1.68s-.02.04,0,.06Z"/>
      <path class="cls-10" d="M200.53,13.98l1.3-2.07s.01-.04,0-.06l-.51-.78s-.03-.03-.05-.01l-1.84,1.2s-.04.02-.07.01c-.03,0-.04-.02-.06-.04l-.39-.59s-.02-.04-.01-.07c0-.03.02-.04.04-.06l4.37-2.87s.04-.02.07-.01c.02,0,.04.02.06.04l1.17,1.78c.17.26.27.53.29.81.02.27-.03.53-.16.78-.13.24-.32.45-.58.62-.3.19-.6.28-.91.27-.31-.02-.59-.13-.85-.35,0,0-.01-.01-.03-.01-.01,0-.02,0-.03.02l-1.28,2.15s-.02.03-.03.04c-.03.02-.07.01-.1-.04l-.41-.62s-.03-.09,0-.13ZM203.21,9.79l-1.29.84s-.03.03-.01.05l.64.97c.14.21.31.33.51.38.21.05.41,0,.61-.13.2-.13.32-.3.37-.51.04-.21,0-.42-.14-.62l-.64-.97s-.03-.03-.05-.01Z"/>
      <path class="cls-10" d="M201.38,15.87c.06-.32.19-.58.38-.79.19-.21.44-.35.75-.41l.19-.04s.05,0,.07.01c.02.01.03.03.04.06l.15.67s0,.05-.01.07c-.01.02-.03.03-.06.04l-.14.03c-.23.05-.4.2-.51.44-.11.24-.12.54-.05.9.07.31.18.52.35.65.16.13.35.17.56.12.14-.03.25-.1.33-.21.08-.11.14-.25.19-.42.05-.18.09-.44.15-.78.05-.39.11-.7.18-.95.07-.25.18-.47.35-.66.17-.19.4-.32.7-.39.44-.1.83-.01,1.16.25.33.27.55.67.67,1.21.08.38.09.73.02,1.04-.07.32-.2.58-.4.8-.2.21-.45.35-.76.42l-.13.03s-.05,0-.07-.01c-.02-.01-.04-.03-.04-.06l-.15-.68s0-.05.01-.07c.01-.02.03-.03.06-.04l.08-.02c.24-.05.42-.19.54-.42.12-.23.14-.52.07-.86-.06-.28-.17-.48-.31-.61-.15-.13-.33-.17-.54-.12-.15.03-.27.1-.34.2-.08.1-.14.24-.18.42-.04.18-.09.45-.14.81-.06.39-.12.7-.18.94-.06.24-.18.46-.34.65-.17.2-.4.33-.69.39-.45.1-.85,0-1.19-.27-.34-.28-.57-.7-.7-1.28-.09-.39-.1-.75-.04-1.07Z"/>
    </g>
    <path class="cls-10" d="M200.19,28.11c-.06,0-.12-.02-.16-.07-.09-.09-.09-.24,0-.33,1.84-1.83,3.1-4.15,3.65-6.7.03-.13.15-.2.28-.18.13.03.2.15.18.28-.57,2.64-1.88,5.04-3.78,6.93-.05.05-.1.07-.16.07Z"/>
    <path class="cls-10" d="M178.67,13.48s-.06,0-.09-.02c-.12-.05-.17-.19-.12-.31,1.08-2.46,2.84-4.54,5.1-6.03.11-.07.25-.04.32.07.07.11.04.25-.07.32-2.18,1.44-3.88,3.45-4.93,5.83-.04.09-.12.14-.21.14Z"/>
  </g>
  <line class="cls-4" x1="158.64" y1="2.5" x2="158.64" y2="37.5"/>
</svg>